<mxfile host="app.diagrams.net" modified="2020-03-16T14:42:37.520Z" agent="Mozilla/5.0 (Windows NT 10.0; Win64; x64) AppleWebKit/537.36 (KHTML, like Gecko) Chrome/75.0.3770.100 Safari/537.36" etag="QGCokyf5GfERuEcBwybQ" version="12.8.5" type="github">
  <diagram id="6ZJGy3HtiKMkAG-Ymsok" name="devops-ci">
    <mxGraphModel dx="536" dy="494" grid="1" gridSize="10" guides="1" tooltips="1" connect="1" arrows="1" fold="1" page="1" pageScale="1" pageWidth="827" pageHeight="1169" math="0" shadow="0">
      <root>
        <mxCell id="jUmf5-1LDpWyXs-bi_V0-0" />
        <mxCell id="jUmf5-1LDpWyXs-bi_V0-1" parent="jUmf5-1LDpWyXs-bi_V0-0" />
        <mxCell id="_7BPCuGJltvROlXCiEvg-15" style="edgeStyle=none;rounded=0;orthogonalLoop=1;jettySize=auto;html=1;entryX=0.25;entryY=0;entryDx=0;entryDy=0;exitX=0.75;exitY=1;exitDx=0;exitDy=0;" parent="jUmf5-1LDpWyXs-bi_V0-1" source="_7BPCuGJltvROlXCiEvg-4" target="_7BPCuGJltvROlXCiEvg-5" edge="1">
          <mxGeometry relative="1" as="geometry">
            <mxPoint x="270" y="421" as="sourcePoint" />
          </mxGeometry>
        </mxCell>
        <mxCell id="_7BPCuGJltvROlXCiEvg-17" value="2、MR" style="text;html=1;align=center;verticalAlign=middle;resizable=0;points=[];labelBackgroundColor=#ffffff;" parent="_7BPCuGJltvROlXCiEvg-15" vertex="1" connectable="0">
          <mxGeometry x="-0.1688" y="-2" relative="1" as="geometry">
            <mxPoint x="-7.2" y="-10.36" as="offset" />
          </mxGeometry>
        </mxCell>
        <mxCell id="_7BPCuGJltvROlXCiEvg-4" value="代码仓库&lt;br&gt;Gitlab" style="rounded=1;whiteSpace=wrap;html=1;fillColor=#fff2cc;strokeColor=#d6b656;" parent="jUmf5-1LDpWyXs-bi_V0-1" vertex="1">
          <mxGeometry x="190" y="360" width="120" height="60" as="geometry" />
        </mxCell>
        <mxCell id="_7BPCuGJltvROlXCiEvg-12" value="3.2、镜像" style="rounded=0;orthogonalLoop=1;jettySize=auto;html=1;exitX=1;exitY=1;exitDx=0;exitDy=0;entryX=0.5;entryY=1;entryDx=0;entryDy=0;" parent="jUmf5-1LDpWyXs-bi_V0-1" source="_7BPCuGJltvROlXCiEvg-5" target="_7BPCuGJltvROlXCiEvg-7" edge="1">
          <mxGeometry relative="1" as="geometry" />
        </mxCell>
        <mxCell id="_7BPCuGJltvROlXCiEvg-5" value="Jenkins" style="rounded=1;whiteSpace=wrap;html=1;fillColor=#f5f5f5;strokeColor=#666666;fontColor=#333333;" parent="jUmf5-1LDpWyXs-bi_V0-1" vertex="1">
          <mxGeometry x="280" y="555" width="120" height="60" as="geometry" />
        </mxCell>
        <mxCell id="_7BPCuGJltvROlXCiEvg-6" value="Kubernetes" style="rounded=1;whiteSpace=wrap;html=1;fillColor=#dae8fc;strokeColor=#6c8ebf;" parent="jUmf5-1LDpWyXs-bi_V0-1" vertex="1">
          <mxGeometry x="650" y="360" width="120" height="60" as="geometry" />
        </mxCell>
        <mxCell id="_7BPCuGJltvROlXCiEvg-14" value="4、deploy" style="edgeStyle=none;rounded=0;orthogonalLoop=1;jettySize=auto;html=1;exitX=1;exitY=0.5;exitDx=0;exitDy=0;" parent="jUmf5-1LDpWyXs-bi_V0-1" source="_7BPCuGJltvROlXCiEvg-7" target="_7BPCuGJltvROlXCiEvg-6" edge="1">
          <mxGeometry relative="1" as="geometry" />
        </mxCell>
        <mxCell id="_7BPCuGJltvROlXCiEvg-7" value="制品仓库&lt;br&gt;Nexus" style="rounded=1;whiteSpace=wrap;html=1;fillColor=#d5e8d4;strokeColor=#82b366;" parent="jUmf5-1LDpWyXs-bi_V0-1" vertex="1">
          <mxGeometry x="420" y="360" width="120" height="60" as="geometry" />
        </mxCell>
        <mxCell id="_7BPCuGJltvROlXCiEvg-11" value="1、Push" style="edgeStyle=orthogonalEdgeStyle;rounded=0;orthogonalLoop=1;jettySize=auto;html=1;" parent="jUmf5-1LDpWyXs-bi_V0-1" source="_7BPCuGJltvROlXCiEvg-10" edge="1">
          <mxGeometry relative="1" as="geometry">
            <mxPoint x="250" y="360" as="targetPoint" />
          </mxGeometry>
        </mxCell>
        <mxCell id="_7BPCuGJltvROlXCiEvg-10" value="开发2" style="rounded=1;whiteSpace=wrap;html=1;fillColor=#e1d5e7;strokeColor=#9673a6;" parent="jUmf5-1LDpWyXs-bi_V0-1" vertex="1">
          <mxGeometry x="190" y="160" width="120" height="60" as="geometry" />
        </mxCell>
        <mxCell id="_7BPCuGJltvROlXCiEvg-18" style="edgeStyle=none;rounded=0;orthogonalLoop=1;jettySize=auto;html=1;exitX=0.25;exitY=1;exitDx=0;exitDy=0;entryX=0;entryY=1;entryDx=0;entryDy=0;" parent="jUmf5-1LDpWyXs-bi_V0-1" source="_7BPCuGJltvROlXCiEvg-4" target="_7BPCuGJltvROlXCiEvg-5" edge="1">
          <mxGeometry relative="1" as="geometry">
            <mxPoint x="260" y="370" as="sourcePoint" />
            <mxPoint x="390" y="270" as="targetPoint" />
          </mxGeometry>
        </mxCell>
        <mxCell id="_7BPCuGJltvROlXCiEvg-19" value="3.1、merge to master" style="text;html=1;align=center;verticalAlign=middle;resizable=0;points=[];labelBackgroundColor=#ffffff;" parent="_7BPCuGJltvROlXCiEvg-18" vertex="1" connectable="0">
          <mxGeometry x="-0.1688" y="-2" relative="1" as="geometry">
            <mxPoint x="6.87" y="10.31" as="offset" />
          </mxGeometry>
        </mxCell>
        <mxCell id="VCCNLaJt32daJaDuhUJw-1" value="Pull" style="edgeStyle=orthogonalEdgeStyle;rounded=0;orthogonalLoop=1;jettySize=auto;html=1;entryX=1;entryY=1;entryDx=0;entryDy=0;dashed=1;strokeColor=#B3B3B3;fontColor=#999999;exitX=1;exitY=0;exitDx=0;exitDy=0;" parent="jUmf5-1LDpWyXs-bi_V0-1" source="_7BPCuGJltvROlXCiEvg-4" target="_7BPCuGJltvROlXCiEvg-10" edge="1">
          <mxGeometry relative="1" as="geometry">
            <mxPoint x="130" y="400" as="sourcePoint" />
            <mxPoint x="250" y="525" as="targetPoint" />
            <Array as="points" />
          </mxGeometry>
        </mxCell>
        <mxCell id="VCCNLaJt32daJaDuhUJw-2" value="maven/npm/docker pull" style="rounded=0;orthogonalLoop=1;jettySize=auto;html=1;exitX=0;exitY=1;exitDx=0;exitDy=0;entryX=0.75;entryY=0;entryDx=0;entryDy=0;dashed=1;strokeColor=#B3B3B3;fontColor=#999999;" parent="jUmf5-1LDpWyXs-bi_V0-1" source="_7BPCuGJltvROlXCiEvg-7" target="_7BPCuGJltvROlXCiEvg-5" edge="1">
          <mxGeometry x="-0.1111" y="-20" relative="1" as="geometry">
            <mxPoint x="200" y="370" as="sourcePoint" />
            <mxPoint x="130" y="370" as="targetPoint" />
            <mxPoint as="offset" />
          </mxGeometry>
        </mxCell>
        <mxCell id="0KhXkewUvxQ6cWLgoowf-0" value="maven/npm" style="rounded=0;orthogonalLoop=1;jettySize=auto;html=1;entryX=1;entryY=1;entryDx=0;entryDy=0;dashed=1;strokeColor=#B3B3B3;fontColor=#999999;exitX=0.25;exitY=0;exitDx=0;exitDy=0;" parent="jUmf5-1LDpWyXs-bi_V0-1" source="_7BPCuGJltvROlXCiEvg-7" target="_7BPCuGJltvROlXCiEvg-10" edge="1">
          <mxGeometry relative="1" as="geometry">
            <mxPoint x="290" y="370" as="sourcePoint" />
            <mxPoint x="290" y="190" as="targetPoint" />
          </mxGeometry>
        </mxCell>
      </root>
    </mxGraphModel>
  </diagram>
</mxfile>
